<svg id="Layer_1" data-name="Layer 1" xmlns="http://www.w3.org/2000/svg" viewBox="0 0 290.59 269.02"><defs><style>.cls-1{fill:#fff;}</style></defs><path class="cls-1" d="M133.2,26a1.19,1.19,0,0,1-.37-.06,1.76,1.76,0,0,1-.84-.91,6.44,6.44,0,0,1-.57-1.6,5.73,5.73,0,0,1-.13-1.09,2.73,2.73,0,0,1,0-.41c.05-.4.21-.61.48-.61a.53.53,0,0,1,.34.11,1,1,0,0,1,.26.39c.09.19.19.47.32.83a5.29,5.29,0,0,0,.58,1.43,5,5,0,0,0,.72-.82,11.52,11.52,0,0,1,2-2,1.42,1.42,0,0,1,.74-.37.24.24,0,0,1,.24.18v.07a3.24,3.24,0,0,1-.43,1.15,17.27,17.27,0,0,1-1.07,1.75,10.81,10.81,0,0,1-1.22,1.48A1.56,1.56,0,0,1,133.2,26Z" transform="translate(-5.49 -16.41)"/><path class="cls-1" d="M139.56,26c-.22,0-.44,0-.67,0A2.48,2.48,0,0,1,137,24.64a1.8,1.8,0,0,1-.21-.84,2.44,2.44,0,0,1,.43-1.28.62.62,0,0,0,.12-.26,1.26,1.26,0,0,1,.48-.5,6.06,6.06,0,0,1,.95-.53,3.39,3.39,0,0,1,1.2-.35,5.52,5.52,0,0,1,1.13.13,4.26,4.26,0,0,1,1,.31A1.89,1.89,0,0,1,143.35,23a7.36,7.36,0,0,1-.1.79c-.07.44-.52.94-1.35,1.51A4,4,0,0,1,139.56,26Zm-.14-1.61a4.63,4.63,0,0,0,.84-.09,2.29,2.29,0,0,0,1.44-.8.64.64,0,0,0,.13-.36c0-.21-.14-.39-.42-.55a2.85,2.85,0,0,0-1.29-.35,1.61,1.61,0,0,0-1.12.42,1.74,1.74,0,0,0-.63,1.06.58.58,0,0,0,.11.34A1.12,1.12,0,0,0,139.42,24.34Z" transform="translate(-5.49 -16.41)"/><path class="cls-1" d="M147.43,25.43l-.8,0c-1.68-.25-2.61-.77-2.78-1.59a1,1,0,0,1,0-.25c0-.7.68-1.31,2.05-1.8a6.4,6.4,0,0,1,1.86-.29c.17,0,.47,0,.91.06s.66.23.66.57a.35.35,0,0,1-.06.23c0,.05-.12.08-.25.11s-.33,0-.6,0a7.22,7.22,0,0,0-1.6.26,4.81,4.81,0,0,0-1.2.47q-.24.15-.24.27c0,.05.05.1.14.15a5.84,5.84,0,0,0,2.22.3c.57,0,1.3,0,2.18-.07l.9,0a1.94,1.94,0,0,1,.59.05.12.12,0,0,1,.1.12c0,.08-.08.2-.23.35a3.87,3.87,0,0,1-1.9.87A8.82,8.82,0,0,1,147.43,25.43Z" transform="translate(-5.49 -16.41)"/><path class="cls-1" d="M158.58,25.58a1.46,1.46,0,0,1-.5-.11,2.86,2.86,0,0,1-1.34-1.3l-.08-.13c-.08-.14-.14-.22-.19-.22a.58.58,0,0,0-.25.15l-.13.1a5.92,5.92,0,0,1-3,1.41,1.11,1.11,0,0,1-1.11-.83,3.57,3.57,0,0,1,0-.47,3,3,0,0,1,1-2.07,5.1,5.1,0,0,1,2.47-1.39,3.07,3.07,0,0,1,.77-.1,2,2,0,0,1,1.58.68.73.73,0,0,1,.16.45s0,.1,0,.21a.42.42,0,0,1-.2.28.2.2,0,0,1-.13,0,.48.48,0,0,1-.27-.13,1.34,1.34,0,0,0-1-.36,4.06,4.06,0,0,0-1.27.34,3.38,3.38,0,0,0-1.54,1.52.34.34,0,0,0,0,.15s0,.06.07.06a5.45,5.45,0,0,0,1.84-1.13,2.56,2.56,0,0,1,1.35-.71l.3,0c.17,0,.41.33.69.93a6.92,6.92,0,0,0,.43.75,3.85,3.85,0,0,1,.71,1.57C158.89,25.49,158.79,25.58,158.58,25.58Z" transform="translate(-5.49 -16.41)"/><path class="cls-1" d="M160,26.11a.41.41,0,0,1-.27-.12c-.27-.19-.4-.87-.4-2V23c0-.63.15-2.52.44-5.67a1.13,1.13,0,0,1,.32-.8.28.28,0,0,1,.17-.07.48.48,0,0,1,.35.23,4.91,4.91,0,0,1,.15,1.3c0,.74.05,1.72.05,2.92a29.76,29.76,0,0,1-.18,4.2Q160.41,26.11,160,26.11Z" transform="translate(-5.49 -16.41)"/><path class="cls-1" d="M164.72,26.19a9.2,9.2,0,0,1-2.52-.31c-.59-.16-.89-.32-.89-.48s.14-.17.43-.25a15.84,15.84,0,0,1,2.09-.32l.76-.09-.42-.12q-1.47-.39-1.47-1.17a1,1,0,0,1,.1-.43,2.14,2.14,0,0,1,1.1-.77,6.7,6.7,0,0,1,1.74-.42H166a1.22,1.22,0,0,1,.85.23.43.43,0,0,1,.12.28.69.69,0,0,1-.11.3.55.55,0,0,1-.49.18,4.73,4.73,0,0,0-1,.18c-.46.12-.7.21-.7.25a7.51,7.51,0,0,0,1.05.24,6.47,6.47,0,0,1,2.09.65.76.76,0,0,1,.4.64c0,.57-.56,1-1.67,1.23A8.22,8.22,0,0,1,164.72,26.19Z" transform="translate(-5.49 -16.41)"/><path class="cls-1" d="M15.3,69.29a.47.47,0,0,1-.32-.16,2.68,2.68,0,0,1-.46-1.41c0-.38,0-1.17,0-2.37,0-.66,0-1.44,0-2.33a38.41,38.41,0,0,1,.14-3.92.66.66,0,0,1,.64-.54.63.63,0,0,1,.42.16.72.72,0,0,1,.24.49c0,.17.05.25.08.25l.22,0,.44-.08a11.28,11.28,0,0,1,1.88-.18,4.53,4.53,0,0,1,1.76.29c.6.26.9.62.9,1.1a1.6,1.6,0,0,1-.15.64,4,4,0,0,1-1.82,1.4,8.28,8.28,0,0,1-2.78.81.63.63,0,0,0-.26.05.39.39,0,0,0-.13.26,4.14,4.14,0,0,0,0,.65v1.28c0,.65,0,1.13,0,1.47s0,.58,0,.74,0,.3-.06.4C15.76,69,15.55,69.29,15.3,69.29Zm.75-7.15a.35.35,0,0,0,.17,0l.41-.16.67-.24a7.64,7.64,0,0,0,2.19-1h0c0-.06-.16-.11-.46-.14a9.12,9.12,0,0,0-1.14-.06q-.43,0-.87,0c-.47,0-.76.06-.87.08a.24.24,0,0,0-.2.14,1.09,1.09,0,0,0,0,.22c0,.48,0,.8,0,1S16,62.14,16.05,62.14Z" transform="translate(-5.49 -16.41)"/><path class="cls-1" d="M22.34,64a.41.41,0,0,1-.27-.12c-.27-.19-.4-.87-.4-2v-1q0-.94.44-5.67a1.13,1.13,0,0,1,.31-.8.27.27,0,0,1,.18-.07.5.5,0,0,1,.35.23,5.43,5.43,0,0,1,.15,1.3c0,.74,0,1.71,0,2.91A29.84,29.84,0,0,1,23,62.94Q22.72,64,22.34,64Z" transform="translate(-5.49 -16.41)"/><path class="cls-1" d="M30.26,63.46a1.69,1.69,0,0,1-.5-.11,3,3,0,0,1-1.35-1.3l-.07-.13c-.08-.15-.14-.22-.19-.22s-.13,0-.25.15l-.13.1a6,6,0,0,1-3,1.41,1.1,1.1,0,0,1-1.11-.83,2.49,2.49,0,0,1,0-.47,3,3,0,0,1,1-2.08,5.13,5.13,0,0,1,2.47-1.39,3.53,3.53,0,0,1,.76-.1,2.06,2.06,0,0,1,1.59.69.77.77,0,0,1,.16.44,1.26,1.26,0,0,1,0,.21.39.39,0,0,1-.19.29.33.33,0,0,1-.13,0A.4.4,0,0,1,29,60a1.39,1.39,0,0,0-.95-.35,3.74,3.74,0,0,0-1.27.34,3.33,3.33,0,0,0-1.54,1.52.39.39,0,0,0,0,.14s0,.07.08.07a5.48,5.48,0,0,0,1.84-1.14,2.53,2.53,0,0,1,1.35-.7l.29,0c.18,0,.41.33.7.92.2.38.34.64.42.76a3.81,3.81,0,0,1,.72,1.56C30.57,63.37,30.46,63.46,30.26,63.46Z" transform="translate(-5.49 -16.41)"/><path class="cls-1" d="M30.28,67.15h-.2l-.37,0a3,3,0,0,1-1.48-.57,1,1,0,0,1-.46-.71c0-.24.1-.36.28-.36a.83.83,0,0,1,.28.06,3.82,3.82,0,0,0,.82.06l.87,0a3.53,3.53,0,0,0,3.14-2,1.67,1.67,0,0,0,.16-.39,0,0,0,0,0,0,0,.32.32,0,0,0-.17.07,1.69,1.69,0,0,1-.63.13,1.4,1.4,0,0,1-1.24-.92,3.24,3.24,0,0,1-.34-1.5,5.12,5.12,0,0,1,.27-1.56,1.18,1.18,0,0,1,.35-.51.46.46,0,0,1,.29-.11c.14,0,.22.1.22.29v.1c0,.39-.06.67-.06.87a4.84,4.84,0,0,0,0,.53c.11.88.29,1.32.52,1.32s.63-.61,1.07-1.83a4.27,4.27,0,0,1,.3-.73.63.63,0,0,1,.58-.33c.33,0,.55.29.65.88a4.76,4.76,0,0,1,.07.86,10.72,10.72,0,0,1-.27,2.11,6.41,6.41,0,0,1-1.05,2.4,5.45,5.45,0,0,1-1.81,1.45A4,4,0,0,1,30.28,67.15Z" transform="translate(-5.49 -16.41)"/><path class="cls-1" d="M8,83.69a.47.47,0,0,1-.32-.16,2.77,2.77,0,0,1-.46-1.41c0-.38,0-1.17,0-2.37,0-.66,0-1.44,0-2.33,0-2.33.08-3.64.14-3.92A.67.67,0,0,1,7.92,73a.63.63,0,0,1,.42.16.64.64,0,0,1,.24.49c0,.17.05.25.09.25l.21,0,.45-.08a11.18,11.18,0,0,1,1.88-.18,4.48,4.48,0,0,1,1.75.29c.6.26.9.62.9,1.1a1.6,1.6,0,0,1-.15.64A4,4,0,0,1,11.89,77a8.22,8.22,0,0,1-2.77.81.6.6,0,0,0-.26,0,.39.39,0,0,0-.14.25,4.76,4.76,0,0,0,0,.66c0,.3,0,.73,0,1.28v1.47c0,.33,0,.58,0,.74a1.89,1.89,0,0,1-.06.4C8.42,83.35,8.22,83.69,8,83.69Zm.76-7.15a.32.32,0,0,0,.16-.05l.41-.16.68-.24a7.5,7.5,0,0,0,2.18-1h0c0-.06-.15-.11-.46-.14a8.84,8.84,0,0,0-1.13-.06c-.29,0-.59,0-.87,0-.48,0-.77.06-.88.08a.23.23,0,0,0-.19.14.65.65,0,0,0,0,.22c0,.48,0,.8,0,.95S8.66,76.54,8.72,76.54Z" transform="translate(-5.49 -16.41)"/><path class="cls-1" d="M21,77.86a1.75,1.75,0,0,1-.5-.11,3,3,0,0,1-1.35-1.3s-.05-.09-.07-.13-.14-.22-.19-.22a.58.58,0,0,0-.25.15l-.13.1a5.92,5.92,0,0,1-3,1.41,1.11,1.11,0,0,1-1.11-.83,3.73,3.73,0,0,1,0-.47,3,3,0,0,1,1-2.08A5.18,5.18,0,0,1,17.8,73a3.62,3.62,0,0,1,.77-.1,2.05,2.05,0,0,1,1.58.69.7.7,0,0,1,.16.44s0,.11,0,.21a.43.43,0,0,1-.2.29.28.28,0,0,1-.13,0,.44.44,0,0,1-.27-.14,1.39,1.39,0,0,0-1-.35,3.8,3.8,0,0,0-1.27.34,3.33,3.33,0,0,0-1.54,1.52.39.39,0,0,0,0,.14c0,.05,0,.07.08.07A5.38,5.38,0,0,0,17.8,75a2.53,2.53,0,0,1,1.35-.7l.3,0c.17,0,.4.33.69.92a7.42,7.42,0,0,0,.43.76,3.88,3.88,0,0,1,.71,1.56C21.28,77.77,21.18,77.86,21,77.86Z" transform="translate(-5.49 -16.41)"/><path class="cls-1" d="M25.92,78.4c-.22,0-.44-.18-.65-.53a3.73,3.73,0,0,1-.36-.75c0-.11-.06-.17-.09-.17s-.08.07-.18.22a1.92,1.92,0,0,1-1.47,1l-.52-.06c-.3,0-.57-.47-.8-1.3a5.26,5.26,0,0,1-.1-1.13c0-.17,0-.46,0-.89a11.15,11.15,0,0,1,.2-1.5,2.32,2.32,0,0,1,.42-1.1.54.54,0,0,1,.32-.15c.2,0,.31.28.31.84v.3c0,.47,0,.89,0,1.27a7,7,0,0,0,.21,2.07.09.09,0,0,0,.08.06c.07,0,.18-.11.32-.34a5.91,5.91,0,0,0,.48-1A7.05,7.05,0,0,0,24.43,74a.92.92,0,0,1,.45-.74.54.54,0,0,1,.22,0c.35,0,.6.29.75.89.1.43.25,1.22.46,2.38a4.76,4.76,0,0,1,.09.87,2.17,2.17,0,0,1-.1.68C26.21,78.27,26.08,78.4,25.92,78.4Z" transform="translate(-5.49 -16.41)"/><path class="cls-1" d="M30.27,78.47a9.12,9.12,0,0,1-2.51-.31q-.9-.24-.9-.48c0-.09.15-.17.43-.26a16.9,16.9,0,0,1,2.09-.31l.77-.09a2.49,2.49,0,0,0-.43-.12c-1-.27-1.47-.66-1.47-1.18a1.16,1.16,0,0,1,.1-.42,2.14,2.14,0,0,1,1.11-.78,6.6,6.6,0,0,1,1.73-.41l.37,0a1.31,1.31,0,0,1,.85.23.46.46,0,0,1,.11.29.55.55,0,0,1-.11.29.55.55,0,0,1-.49.18,4.92,4.92,0,0,0-1,.19c-.47.12-.7.21-.7.25a7.07,7.07,0,0,0,1,.24,6.44,6.44,0,0,1,2.09.64.75.75,0,0,1,.4.65c0,.57-.55,1-1.66,1.23A8.37,8.37,0,0,1,30.27,78.47Z" transform="translate(-5.49 -16.41)"/><path class="cls-1" d="M37.83,78q-.3,0-.6,0a3.4,3.4,0,0,1-2.75-1.56,1.77,1.77,0,0,1-.22-.85,2.61,2.61,0,0,1,.83-1.74,4.36,4.36,0,0,1,3-1.26,2.42,2.42,0,0,1,1.36.36A1.23,1.23,0,0,1,40,74a2.05,2.05,0,0,1-1,1.48,3.88,3.88,0,0,1-2.12.72c-.15,0-.23,0-.23,0s.14.08.42.12a4.88,4.88,0,0,0,.93.09c.42,0,1,0,1.76-.11s1.39-.17,1.92-.28a2.64,2.64,0,0,1,.63-.1c.15,0,.23,0,.23.12a.47.47,0,0,1-.13.24,4.39,4.39,0,0,1-2.17,1.28A7.69,7.69,0,0,1,37.83,78Zm-1.51-3a6.11,6.11,0,0,0,.79-.15,3.14,3.14,0,0,0,1.29-.6.26.26,0,0,0,.11-.17c0-.08-.11-.13-.35-.13a2.81,2.81,0,0,0-1.17.3,4.9,4.9,0,0,0-.62.35c-.19.14-.29.25-.29.33s.05.07.17.07Z" transform="translate(-5.49 -16.41)"/><path class="cls-1" d="M136,285.05a5.07,5.07,0,0,1-.66,0,2.53,2.53,0,0,1-1.92-1.26,1.92,1.92,0,0,1-.2-.84,2.39,2.39,0,0,1,.43-1.29.58.58,0,0,0,.12-.25,1.13,1.13,0,0,1,.48-.5,5.26,5.26,0,0,1,.94-.54,3.44,3.44,0,0,1,1.21-.35,6.32,6.32,0,0,1,1.13.13,4.75,4.75,0,0,1,1.05.31,1.92,1.92,0,0,1,1.22,1.64c0,.09,0,.36-.11.79s-.52.94-1.34,1.51A4,4,0,0,1,136,285.05Zm-.13-1.61a4.63,4.63,0,0,0,.84-.09,2.29,2.29,0,0,0,1.44-.79.72.72,0,0,0,.13-.37c0-.2-.14-.39-.42-.55a3,3,0,0,0-1.29-.35,1.55,1.55,0,0,0-1.12.43,1.69,1.69,0,0,0-.64,1.06.52.52,0,0,0,.12.33A1.12,1.12,0,0,0,135.91,283.44Z" transform="translate(-5.49 -16.41)"/><path class="cls-1" d="M142.05,285.18a1.39,1.39,0,0,1-.4-.06c-.86-.41-1.29-1.41-1.29-3a13.43,13.43,0,0,1,.17-2,.25.25,0,0,0,0-.08.08.08,0,0,0,0-.07l-.16,0c-.5-.11-.75-.3-.75-.56v-.22c0-.15.26-.27.77-.37a1.29,1.29,0,0,0,.29-.05.19.19,0,0,0,.09-.13c0-.07,0-.19.07-.35a11.13,11.13,0,0,1,.48-2c.12-.29.3-.44.52-.44a.42.42,0,0,1,.37.19,1.26,1.26,0,0,1,.08.53c0,.32-.07.95-.19,1.9v.09a.19.19,0,0,0,0,.07s.16.06.43.08c1,.11,1.54.34,1.54.69s-.51.56-1.52.65a1.62,1.62,0,0,0-.49.05c-.07,0-.11.13-.13.28s0,.31,0,.56v.47c0,1.45.14,2.17.4,2.17a1.66,1.66,0,0,0,.57-.16,3.91,3.91,0,0,0,.71-.35,1.51,1.51,0,0,1,.46-.26s.07,0,.07.15a.66.66,0,0,1,0,.13,2.42,2.42,0,0,1-.91,1.58A1.88,1.88,0,0,1,142.05,285.18Z" transform="translate(-5.49 -16.41)"/><path class="cls-1" d="M145.38,285.39a.79.79,0,0,1-.29-.06.94.94,0,0,1-.43-.41,8.6,8.6,0,0,1-.07-1.61c0-.59,0-1.3,0-2.13s0-1.64.07-2.43.07-1.33.11-1.62a.73.73,0,0,1,.24-.49.32.32,0,0,1,.18-.06.37.37,0,0,1,.21.08.39.39,0,0,1,.16.21,2.23,2.23,0,0,1,.1.53c0,.42.09,1.52.15,3.31,0,1,0,1.56.06,1.58a6,6,0,0,0,.5-.47,3.35,3.35,0,0,1,2.2-1,5,5,0,0,1,1.22.27c.58.19,1.07.95,1.47,2.29a3.87,3.87,0,0,1,.11.8c0,.47-.16.7-.48.7s-.7-.39-1.07-1.18-.87-1.39-1.38-1.39-1.35.72-2.14,2.17a2.57,2.57,0,0,1-.61.84A.56.56,0,0,1,145.38,285.39Z" transform="translate(-5.49 -16.41)"/><path class="cls-1" d="M155.43,284.78l-.6,0a3.42,3.42,0,0,1-2.76-1.56,1.91,1.91,0,0,1-.21-.86,2.6,2.6,0,0,1,.83-1.74,4.4,4.4,0,0,1,3-1.25,2.44,2.44,0,0,1,1.36.36,1.22,1.22,0,0,1,.56,1.09,2.07,2.07,0,0,1-1,1.48,4,4,0,0,1-2.13.71c-.14,0-.22,0-.22,0s.14.07.42.12a4.87,4.87,0,0,0,.93.08,24,24,0,0,0,3.67-.38,2.78,2.78,0,0,1,.64-.1c.15,0,.22,0,.22.11a.44.44,0,0,1-.12.24,4.32,4.32,0,0,1-2.17,1.29A8,8,0,0,1,155.43,284.78Zm-1.52-3a4.65,4.65,0,0,0,.8-.14,3.51,3.51,0,0,0,1.29-.6.3.3,0,0,0,.11-.18c0-.08-.12-.12-.35-.12a2.81,2.81,0,0,0-1.17.3,3.91,3.91,0,0,0-.62.35c-.2.14-.3.25-.3.32s.06.07.18.07Z" transform="translate(-5.49 -16.41)"/><path class="cls-1" d="M161.46,285.43a.75.75,0,0,1-.39-.11q-.48-.29-.48-1.86a13.71,13.71,0,0,1,.23-2.28c.13-.6.33-.9.59-.9l.24,0q.22,0,.33,1c0,.26,0,.39.1.39s.2-.13.44-.37a3,3,0,0,1,2-1,2.07,2.07,0,0,1,1.37.57,1.25,1.25,0,0,1,.4.64q0,.18-.3.18l-.24,0a2.93,2.93,0,0,0-.58-.06c-1.2,0-2.14.91-2.8,2.74C162.11,285.1,161.81,285.43,161.46,285.43Z" transform="translate(-5.49 -16.41)"/><path class="cls-1" d="M268.38,213.28c-.26,0-.48-.18-.68-.56a3.82,3.82,0,0,1-.37-1.42c0-.26,0-.39-.07-.39s-.09.07-.19.21a5.2,5.2,0,0,1-2,1.72,3.49,3.49,0,0,1-1.57.42,2.72,2.72,0,0,1-.58-.06,1.43,1.43,0,0,1-1.17-1.44,2.19,2.19,0,0,1,.7-1.49,3.7,3.7,0,0,1,2.6-1.08,4.51,4.51,0,0,1,1.32.2h0l.06,0a2.33,2.33,0,0,0,.2-.34,6.6,6.6,0,0,0,.79-2.51,5.78,5.78,0,0,1,.32-1.57.58.58,0,0,1,.54-.39h.05c.43,0,.64.33.64,1a4.91,4.91,0,0,1-.1.92,15.39,15.39,0,0,0-.15,2.46c0,.39,0,.78,0,1.18,0,.68.05,1.24.05,1.68,0,.11,0,.31,0,.59a1.58,1.58,0,0,1-.12.67A.38.38,0,0,1,268.38,213.28Zm-4.85-1.45a2.15,2.15,0,0,0,.8-.22,4.29,4.29,0,0,0,1.24-.93.35.35,0,0,0,.13-.22.12.12,0,0,0,0-.08s-.11-.06-.26-.06a2.85,2.85,0,0,0-.88.18,2.6,2.6,0,0,0-.9.49c-.28.26-.42.47-.42.62a.21.21,0,0,0,.07.15A.4.4,0,0,0,263.53,211.83Z" transform="translate(-5.49 -16.41)"/><path class="cls-1" d="M270.38,214.16a.85.85,0,0,1-.38-.11q-.48-.28-.48-1.86a13.71,13.71,0,0,1,.23-2.28c.13-.6.33-.9.59-.9l.24,0q.23,0,.33,1c0,.26,0,.39.1.39s.2-.13.44-.37a3,3,0,0,1,2-1,2.07,2.07,0,0,1,1.37.57c.27.29.4.5.4.64s-.1.18-.3.18l-.24,0a3,3,0,0,0-.58-.07c-1.2,0-2.14.92-2.8,2.75C271,213.82,270.74,214.16,270.38,214.16Z" transform="translate(-5.49 -16.41)"/><path class="cls-1" d="M279.84,214c-.22,0-.44-.18-.65-.53a3.64,3.64,0,0,1-.36-.74q0-.18-.09-.18s-.08.08-.18.22a1.89,1.89,0,0,1-1.47,1l-.52,0c-.3,0-.57-.47-.8-1.31a5.26,5.26,0,0,1-.1-1.13c0-.16,0-.46,0-.88a11.07,11.07,0,0,1,.2-1.51,2.37,2.37,0,0,1,.42-1.1.56.56,0,0,1,.32-.15c.2,0,.31.28.31.84v.31c0,.46,0,.89,0,1.27a6.91,6.91,0,0,0,.21,2.06.1.1,0,0,0,.09.06c.07,0,.17-.11.31-.33a6.08,6.08,0,0,0,.48-1,6.15,6.15,0,0,0,.35-1.28.9.9,0,0,1,.45-.73.63.63,0,0,1,.22,0c.36,0,.6.3.75.89.1.43.25,1.22.46,2.38a4.94,4.94,0,0,1,.09.87,2.29,2.29,0,0,1-.1.69C280.13,213.82,280,214,279.84,214Z" transform="translate(-5.49 -16.41)"/><path class="cls-1" d="M285,214.11a.64.64,0,0,1-.4-.16.86.86,0,0,1-.32-.46,7.91,7.91,0,0,1-.35-1.13l-.27-1a5.66,5.66,0,0,0-.49.93,3.93,3.93,0,0,1-.86,1.32.66.66,0,0,1-.43.16.9.9,0,0,1-.43-.12.8.8,0,0,1-.39-.36,2,2,0,0,1-.19-.79c0-.37,0-.89,0-1.58,0-.15,0-.32,0-.51V210a8.58,8.58,0,0,1,.05-1,.87.87,0,0,1,.31-.69.43.43,0,0,1,.25-.08c.14,0,.26.12.37.37a6.47,6.47,0,0,1,.31,1.74,2.81,2.81,0,0,0,.07.57,3.15,3.15,0,0,0,.24-.39c.48-.8.93-1.2,1.33-1.2s.91.6,1.26,1.82a5.69,5.69,0,0,0,.16.56s.17-.17.4-.51q1.17-1.62,1.92-1.62c.61,0,1,.8,1.21,2.38v.42q0,1.47-.48,1.47l-.33,0c-.21,0-.41-.7-.6-2,0-.16,0-.29-.06-.4s0-.18,0-.18-.11.08-.22.25-.26.39-.43.67-.32.57-.47.87C285.68,213.74,285.33,214.11,285,214.11Z" transform="translate(-5.49 -16.41)"/><path class="cls-1" d="M292.56,214a9.23,9.23,0,0,1-2.52-.32c-.59-.16-.89-.32-.89-.48s.14-.17.43-.25a15.06,15.06,0,0,1,2.09-.31l.76-.1-.42-.12q-1.47-.39-1.47-1.17a1,1,0,0,1,.1-.43,2.13,2.13,0,0,1,1.11-.77,6.15,6.15,0,0,1,1.73-.41,2.36,2.36,0,0,1,.37,0,1.25,1.25,0,0,1,.85.23.47.47,0,0,1,.11.28.65.65,0,0,1-.11.3.55.55,0,0,1-.49.18,4.56,4.56,0,0,0-1,.18c-.47.13-.71.21-.71.25a7.51,7.51,0,0,0,1,.24,6.47,6.47,0,0,1,2.09.65.74.74,0,0,1,.4.64c0,.57-.56,1-1.67,1.23A8.2,8.2,0,0,1,292.56,214Z" transform="translate(-5.49 -16.41)"/><path class="cls-1" d="M8,214a2.12,2.12,0,0,1-.57-.08.75.75,0,0,1-.6-.71.49.49,0,0,1,.07-.25.23.23,0,0,1,.2-.11l.13,0,.16,0a3.35,3.35,0,0,0,1.14-.34,7.14,7.14,0,0,0,1.46-.89c.39-.35.58-.59.58-.72s-.1-.16-.3-.16a3.67,3.67,0,0,0-1.15.32,7.83,7.83,0,0,0-1.77,1,2.12,2.12,0,0,1-1.14.53c-.36,0-.6-.24-.72-.74a2.62,2.62,0,0,1,0-.37c0-.71.07-2,.2-3.84a37.09,37.09,0,0,1,.42-4.29.42.42,0,0,1,.19-.24.34.34,0,0,1,.16,0l.13,0h0a.2.2,0,0,1,.12.08,1.56,1.56,0,0,1,.12.77c0,.5,0,1.41,0,2.75v.27c0,2.32,0,3.51,0,3.56a1.48,1.48,0,0,0,.25-.15,5.88,5.88,0,0,1,3.14-1.09l.83,0c.51,0,.83.41.95,1.21v0a2.41,2.41,0,0,1-.8,1.64,6.14,6.14,0,0,1-1.92,1.36A3.3,3.3,0,0,1,8,214Z" transform="translate(-5.49 -16.41)"/><path class="cls-1" d="M19.21,213.42a1.53,1.53,0,0,1-.5-.12,2.9,2.9,0,0,1-1.34-1.3l-.08-.12c-.07-.15-.14-.23-.19-.23a.65.65,0,0,0-.25.15l-.13.1a5.92,5.92,0,0,1-3,1.41,1.1,1.1,0,0,1-1.11-.83,3.57,3.57,0,0,1,0-.46,3,3,0,0,1,1-2.08A5.1,5.1,0,0,1,16,208.55a3.07,3.07,0,0,1,.77-.1,2.08,2.08,0,0,1,1.58.68.75.75,0,0,1,.16.45s0,.1,0,.21a.39.39,0,0,1-.2.28.2.2,0,0,1-.13,0,.38.38,0,0,1-.26-.13,1.37,1.37,0,0,0-1-.36,4,4,0,0,0-1.28.34,3.38,3.38,0,0,0-1.54,1.52.34.34,0,0,0,0,.15s0,.06.07.06A5.45,5.45,0,0,0,16,210.56a2.55,2.55,0,0,1,1.36-.71l.29,0c.17,0,.41.33.7.93q.3.57.42.75a3.85,3.85,0,0,1,.71,1.57C19.52,213.32,19.42,213.42,19.21,213.42Z" transform="translate(-5.49 -16.41)"/><path class="cls-1" d="M23.4,214a9.18,9.18,0,0,1-2.52-.32c-.59-.16-.89-.32-.89-.48s.14-.17.43-.25a14.79,14.79,0,0,1,2.09-.31l.76-.1-.42-.12q-1.47-.39-1.47-1.17a1,1,0,0,1,.1-.43,2.14,2.14,0,0,1,1.1-.77,6.3,6.3,0,0,1,1.74-.41,2.36,2.36,0,0,1,.37,0,1.21,1.21,0,0,1,.84.23.43.43,0,0,1,.12.28.65.65,0,0,1-.11.3.55.55,0,0,1-.49.18,4.73,4.73,0,0,0-1,.18c-.46.13-.7.21-.7.25a7.51,7.51,0,0,0,1.05.24,6.47,6.47,0,0,1,2.09.65.76.76,0,0,1,.4.64c0,.57-.56,1-1.67,1.23A8.2,8.2,0,0,1,23.4,214Z" transform="translate(-5.49 -16.41)"/><path class="cls-1" d="M30.79,214a9.1,9.1,0,0,1-2.51-.32c-.6-.16-.89-.32-.89-.48s.14-.17.42-.25a15.06,15.06,0,0,1,2.09-.31l.77-.1-.42-.12c-1-.26-1.48-.65-1.48-1.17a1.17,1.17,0,0,1,.1-.43,2.13,2.13,0,0,1,1.11-.77,6.23,6.23,0,0,1,1.73-.41,2.42,2.42,0,0,1,.37,0,1.25,1.25,0,0,1,.85.23.43.43,0,0,1,.12.28.58.58,0,0,1-.12.3c-.07.12-.24.18-.49.18a4.79,4.79,0,0,0-1,.18c-.47.13-.7.21-.7.25a7.55,7.55,0,0,0,1,.24,6.38,6.38,0,0,1,2.09.65.74.74,0,0,1,.4.64c0,.57-.55,1-1.66,1.23A8.35,8.35,0,0,1,30.79,214Z" transform="translate(-5.49 -16.41)"/><line class="cls-1" x1="144.51" y1="243.48" x2="144.51" y2="257.09"/><path class="cls-1" d="M150,259.9a42,42,0,0,1,.5,6.8,40,40,0,0,1-.5,6.81,40,40,0,0,1-.5-6.81A42,42,0,0,1,150,259.9Z" transform="translate(-5.49 -16.41)"/><line class="cls-1" x1="144.51" y1="11.84" x2="144.51" y2="25.45"/><path class="cls-1" d="M150,28.25a42.19,42.19,0,0,1,.5,6.81,40,40,0,0,1-.5,6.81,40,40,0,0,1-.5-6.81A42.19,42.19,0,0,1,150,28.25Z" transform="translate(-5.49 -16.41)"/><path class="cls-1" d="M34,150,23.93,160.38a14.52,14.52,0,0,0-2.3,2.69,9.32,9.32,0,0,0-1.2,3.25,20.86,20.86,0,0,0-.1,3.55l0,3.61c.06,4.81.17,9.62.1,14.43s-.16,9.62-.45,14.43a.05.05,0,1,1-.1,0c-.28-4.81-.36-9.62-.45-14.43s.05-9.62.1-14.43l0-3.61a22.74,22.74,0,0,1,.19-3.66,9.67,9.67,0,0,1,1.35-3.44A14.89,14.89,0,0,1,23.57,160L33.92,150a.06.06,0,0,1,.07,0A0,0,0,0,1,34,150Z" transform="translate(-5.49 -16.41)"/><path class="cls-1" d="M266.48,150,276.83,160l1.29,1.26a8.62,8.62,0,0,1,1.18,1.44,8.74,8.74,0,0,1,1.35,3.45,10.6,10.6,0,0,1,.13,1.85l0,1.81,0,3.61c.06,4.81.17,9.63.1,14.44s-.16,9.63-.45,14.44a0,0,0,0,1-.1,0c-.28-4.81-.36-9.63-.45-14.44s.05-9.63.1-14.44l0-3.61a30,30,0,0,0-.06-3.56,8.19,8.19,0,0,0-1.19-3.24,17.09,17.09,0,0,0-2.34-2.66L266.4,150a.08.08,0,0,1,0-.08A.09.09,0,0,1,266.48,150Z" transform="translate(-5.49 -16.41)"/><path class="cls-1" d="M133.22,134.56,93,94.85,83,84.93,73,75,70.5,72.42a14.79,14.79,0,0,0-2.62-2.19A14.47,14.47,0,0,0,61.45,68c-2.29-.14-4.69-.1-7-.17l-7.06-.18a0,0,0,0,1,0-.1c4.72-.1,9.39-.29,14.15-.24a14.72,14.72,0,0,1,6.83,2.22,15.09,15.09,0,0,1,2.82,2.27l2.52,2.47,10,10,9.92,10.06,39.71,40.2a.06.06,0,0,1,0,.07S133.24,134.58,133.22,134.56Z" transform="translate(-5.49 -16.41)"/></svg>