<svg xmlns="http://www.w3.org/2000/svg" viewBox="0 0 290.59 269.02"><defs><style>.cls-1{fill:#fff;}</style></defs><g id="Layer_1" data-name="Layer 1"><path class="cls-1" d="M133.2,26a1.19,1.19,0,0,1-.37-.06,1.76,1.76,0,0,1-.84-.91,6.44,6.44,0,0,1-.57-1.6,5.73,5.73,0,0,1-.13-1.09,2.73,2.73,0,0,1,0-.41c.05-.4.21-.61.48-.61a.53.53,0,0,1,.34.11,1,1,0,0,1,.26.39c.09.19.19.47.32.83a5.29,5.29,0,0,0,.58,1.43,5,5,0,0,0,.72-.82,11.52,11.52,0,0,1,2-2,1.42,1.42,0,0,1,.74-.37.24.24,0,0,1,.24.18v.07a3.24,3.24,0,0,1-.43,1.15,17.27,17.27,0,0,1-1.07,1.75,10.81,10.81,0,0,1-1.22,1.48A1.56,1.56,0,0,1,133.2,26Z" transform="translate(-5.49 -16.41)"/><path class="cls-1" d="M139.56,26c-.22,0-.44,0-.67,0A2.48,2.48,0,0,1,137,24.64a1.8,1.8,0,0,1-.21-.84,2.44,2.44,0,0,1,.43-1.28.62.62,0,0,0,.12-.26,1.26,1.26,0,0,1,.48-.5,6.06,6.06,0,0,1,.95-.53,3.39,3.39,0,0,1,1.2-.35,5.52,5.52,0,0,1,1.13.13,4.26,4.26,0,0,1,1,.31A1.89,1.89,0,0,1,143.35,23a7.36,7.36,0,0,1-.1.79c-.07.44-.52.94-1.35,1.51A4,4,0,0,1,139.56,26Zm-.14-1.61a4.63,4.63,0,0,0,.84-.09,2.29,2.29,0,0,0,1.44-.8.64.64,0,0,0,.13-.36c0-.21-.14-.39-.42-.55a2.85,2.85,0,0,0-1.29-.35,1.61,1.61,0,0,0-1.12.42,1.74,1.74,0,0,0-.63,1.06.58.58,0,0,0,.11.34A1.12,1.12,0,0,0,139.42,24.34Z" transform="translate(-5.49 -16.41)"/><path class="cls-1" d="M147.43,25.43l-.8,0c-1.68-.25-2.61-.77-2.78-1.59a1,1,0,0,1,0-.25c0-.7.68-1.31,2.05-1.8a6.4,6.4,0,0,1,1.86-.29c.17,0,.47,0,.91.06s.66.23.66.57a.35.35,0,0,1-.06.23c0,.05-.12.08-.25.11s-.33,0-.6,0a7.22,7.22,0,0,0-1.6.26,4.81,4.81,0,0,0-1.2.47q-.24.15-.24.27c0,.05.05.1.14.15a5.84,5.84,0,0,0,2.22.3c.57,0,1.3,0,2.18-.07l.9,0a1.94,1.94,0,0,1,.59.05.12.12,0,0,1,.1.12c0,.08-.08.2-.23.35a3.87,3.87,0,0,1-1.9.87A8.82,8.82,0,0,1,147.43,25.43Z" transform="translate(-5.49 -16.41)"/><path class="cls-1" d="M158.58,25.58a1.46,1.46,0,0,1-.5-.11,2.86,2.86,0,0,1-1.34-1.3l-.08-.13c-.08-.14-.14-.22-.19-.22a.58.58,0,0,0-.25.15l-.13.1a5.92,5.92,0,0,1-3,1.41,1.11,1.11,0,0,1-1.11-.83,3.57,3.57,0,0,1,0-.47,3,3,0,0,1,1-2.07,5.1,5.1,0,0,1,2.47-1.39,3.07,3.07,0,0,1,.77-.1,2,2,0,0,1,1.58.68.73.73,0,0,1,.16.45s0,.1,0,.21a.42.42,0,0,1-.2.28.2.2,0,0,1-.13,0,.48.48,0,0,1-.27-.13,1.34,1.34,0,0,0-1-.36,4.06,4.06,0,0,0-1.27.34,3.38,3.38,0,0,0-1.54,1.52.34.34,0,0,0,0,.15s0,.06.07.06a5.45,5.45,0,0,0,1.84-1.13,2.56,2.56,0,0,1,1.35-.71l.3,0c.17,0,.41.33.69.93a6.92,6.92,0,0,0,.43.75,3.85,3.85,0,0,1,.71,1.57C158.89,25.49,158.79,25.58,158.58,25.58Z" transform="translate(-5.49 -16.41)"/><path class="cls-1" d="M160,26.11a.41.41,0,0,1-.27-.12c-.27-.19-.4-.87-.4-2V23c0-.63.15-2.52.44-5.67a1.13,1.13,0,0,1,.32-.8.28.28,0,0,1,.17-.07.48.48,0,0,1,.35.23,4.91,4.91,0,0,1,.15,1.3c0,.74.05,1.72.05,2.92a29.76,29.76,0,0,1-.18,4.2Q160.41,26.11,160,26.11Z" transform="translate(-5.49 -16.41)"/><path class="cls-1" d="M164.72,26.19a9.2,9.2,0,0,1-2.52-.31c-.59-.16-.89-.32-.89-.48s.14-.17.43-.25a15.84,15.84,0,0,1,2.09-.32l.76-.09-.42-.12q-1.47-.39-1.47-1.17a1,1,0,0,1,.1-.43,2.14,2.14,0,0,1,1.1-.77,6.7,6.7,0,0,1,1.74-.42H166a1.22,1.22,0,0,1,.85.23.43.43,0,0,1,.12.28.69.69,0,0,1-.11.3.55.55,0,0,1-.49.18,4.73,4.73,0,0,0-1,.18c-.46.12-.7.21-.7.25a7.51,7.51,0,0,0,1.05.24,6.47,6.47,0,0,1,2.09.65.76.76,0,0,1,.4.64c0,.57-.56,1-1.67,1.23A8.22,8.22,0,0,1,164.72,26.19Z" transform="translate(-5.49 -16.41)"/><path class="cls-1" d="M15.3,69.29a.47.47,0,0,1-.32-.16,2.68,2.68,0,0,1-.46-1.41c0-.38,0-1.17,0-2.37,0-.66,0-1.44,0-2.33a38.41,38.41,0,0,1,.14-3.92.66.66,0,0,1,.64-.54.63.63,0,0,1,.42.16.72.72,0,0,1,.24.49c0,.17.05.25.08.25l.22,0,.44-.08a11.28,11.28,0,0,1,1.88-.18,4.53,4.53,0,0,1,1.76.29c.6.26.9.62.9,1.1a1.6,1.6,0,0,1-.15.64,4,4,0,0,1-1.82,1.4,8.28,8.28,0,0,1-2.78.81.63.63,0,0,0-.26.05.39.39,0,0,0-.13.26,4.14,4.14,0,0,0,0,.65v1.28c0,.65,0,1.13,0,1.47s0,.58,0,.74,0,.3-.06.4C15.76,69,15.55,69.29,15.3,69.29Zm.75-7.15a.35.35,0,0,0,.17,0l.41-.16.67-.24a7.64,7.64,0,0,0,2.19-1h0c0-.06-.16-.11-.46-.14a9.12,9.12,0,0,0-1.14-.06q-.43,0-.87,0c-.47,0-.76.06-.87.08a.24.24,0,0,0-.2.14,1.09,1.09,0,0,0,0,.22c0,.48,0,.8,0,1S16,62.14,16.05,62.14Z" transform="translate(-5.49 -16.41)"/><path class="cls-1" d="M22.34,64a.41.41,0,0,1-.27-.12c-.27-.19-.4-.87-.4-2v-1q0-.94.44-5.67a1.13,1.13,0,0,1,.31-.8.27.27,0,0,1,.18-.07.5.5,0,0,1,.35.23,5.43,5.43,0,0,1,.15,1.3c0,.74,0,1.71,0,2.91A29.84,29.84,0,0,1,23,62.94Q22.72,64,22.34,64Z" transform="translate(-5.49 -16.41)"/><path class="cls-1" d="M30.26,63.46a1.69,1.69,0,0,1-.5-.11,3,3,0,0,1-1.35-1.3l-.07-.13c-.08-.15-.14-.22-.19-.22s-.13,0-.25.15l-.13.1a6,6,0,0,1-3,1.41,1.1,1.1,0,0,1-1.11-.83,2.49,2.49,0,0,1,0-.47,3,3,0,0,1,1-2.08,5.13,5.13,0,0,1,2.47-1.39,3.53,3.53,0,0,1,.76-.1,2.06,2.06,0,0,1,1.59.69.77.77,0,0,1,.16.44,1.26,1.26,0,0,1,0,.21.39.39,0,0,1-.19.29.33.33,0,0,1-.13,0A.4.4,0,0,1,29,60a1.39,1.39,0,0,0-.95-.35,3.74,3.74,0,0,0-1.27.34,3.33,3.33,0,0,0-1.54,1.52.39.39,0,0,0,0,.14s0,.07.08.07a5.48,5.48,0,0,0,1.84-1.14,2.53,2.53,0,0,1,1.35-.7l.29,0c.18,0,.41.33.7.92.2.38.34.64.42.76a3.81,3.81,0,0,1,.72,1.56C30.57,63.37,30.46,63.46,30.26,63.46Z" transform="translate(-5.49 -16.41)"/><path class="cls-1" d="M30.28,67.15h-.2l-.37,0a3,3,0,0,1-1.48-.57,1,1,0,0,1-.46-.71c0-.24.1-.36.28-.36a.83.83,0,0,1,.28.06,3.82,3.82,0,0,0,.82.06l.87,0a3.53,3.53,0,0,0,3.14-2,1.67,1.67,0,0,0,.16-.39,0,0,0,0,0,0,0,.32.32,0,0,0-.17.07,1.69,1.69,0,0,1-.63.13,1.4,1.4,0,0,1-1.24-.92,3.24,3.24,0,0,1-.34-1.5,5.12,5.12,0,0,1,.27-1.56,1.18,1.18,0,0,1,.35-.51.46.46,0,0,1,.29-.11c.14,0,.22.1.22.29v.1c0,.39-.06.67-.06.87a4.84,4.84,0,0,0,0,.53c.11.88.29,1.32.52,1.32s.63-.61,1.07-1.83a4.27,4.27,0,0,1,.3-.73.63.63,0,0,1,.58-.33c.33,0,.55.29.65.88a4.76,4.76,0,0,1,.07.86,10.72,10.72,0,0,1-.27,2.11,6.41,6.41,0,0,1-1.05,2.4,5.45,5.45,0,0,1-1.81,1.45A4,4,0,0,1,30.28,67.15Z" transform="translate(-5.49 -16.41)"/><path class="cls-1" d="M8,83.69a.47.47,0,0,1-.32-.16,2.77,2.77,0,0,1-.46-1.41c0-.38,0-1.17,0-2.37,0-.66,0-1.44,0-2.33,0-2.33.08-3.64.14-3.92A.67.67,0,0,1,7.92,73a.63.63,0,0,1,.42.16.64.64,0,0,1,.24.49c0,.17.05.25.09.25l.21,0,.45-.08a11.18,11.18,0,0,1,1.88-.18,4.48,4.48,0,0,1,1.75.29c.6.26.9.62.9,1.1a1.6,1.6,0,0,1-.15.64A4,4,0,0,1,11.89,77a8.22,8.22,0,0,1-2.77.81.6.6,0,0,0-.26,0,.39.39,0,0,0-.14.25,4.76,4.76,0,0,0,0,.66c0,.3,0,.73,0,1.28v1.47c0,.33,0,.58,0,.74a1.89,1.89,0,0,1-.06.4C8.42,83.35,8.22,83.69,8,83.69Zm.76-7.15a.32.32,0,0,0,.16-.05l.41-.16.68-.24a7.5,7.5,0,0,0,2.18-1h0c0-.06-.15-.11-.46-.14a8.84,8.84,0,0,0-1.13-.06c-.29,0-.59,0-.87,0-.48,0-.77.06-.88.08a.23.23,0,0,0-.19.14.65.65,0,0,0,0,.22c0,.48,0,.8,0,.95S8.66,76.54,8.72,76.54Z" transform="translate(-5.49 -16.41)"/><path class="cls-1" d="M21,77.86a1.75,1.75,0,0,1-.5-.11,3,3,0,0,1-1.35-1.3s-.05-.09-.07-.13-.14-.22-.19-.22a.58.58,0,0,0-.25.15l-.13.1a5.92,5.92,0,0,1-3,1.41,1.11,1.11,0,0,1-1.11-.83,3.73,3.73,0,0,1,0-.47,3,3,0,0,1,1-2.08A5.18,5.18,0,0,1,17.8,73a3.62,3.62,0,0,1,.77-.1,2.05,2.05,0,0,1,1.58.69.7.7,0,0,1,.16.44s0,.11,0,.21a.43.43,0,0,1-.2.29.28.28,0,0,1-.13,0,.44.44,0,0,1-.27-.14,1.39,1.39,0,0,0-1-.35,3.8,3.8,0,0,0-1.27.34,3.33,3.33,0,0,0-1.54,1.52.39.39,0,0,0,0,.14c0,.05,0,.07.08.07A5.38,5.38,0,0,0,17.8,75a2.53,2.53,0,0,1,1.35-.7l.3,0c.17,0,.4.33.69.92a7.42,7.42,0,0,0,.43.76,3.88,3.88,0,0,1,.71,1.56C21.28,77.77,21.18,77.86,21,77.86Z" transform="translate(-5.49 -16.41)"/><path class="cls-1" d="M25.92,78.4c-.22,0-.44-.18-.65-.53a3.73,3.73,0,0,1-.36-.75c0-.11-.06-.17-.09-.17s-.08.07-.18.22a1.92,1.92,0,0,1-1.47,1l-.52-.06c-.3,0-.57-.47-.8-1.3a5.26,5.26,0,0,1-.1-1.13c0-.17,0-.46,0-.89a11.15,11.15,0,0,1,.2-1.5,2.32,2.32,0,0,1,.42-1.1.54.54,0,0,1,.32-.15c.2,0,.31.28.31.84v.3c0,.47,0,.89,0,1.27a7,7,0,0,0,.21,2.07.09.09,0,0,0,.08.06c.07,0,.18-.11.32-.34a5.91,5.91,0,0,0,.48-1A7.05,7.05,0,0,0,24.43,74a.92.92,0,0,1,.45-.74.54.54,0,0,1,.22,0c.35,0,.6.29.75.89.1.43.25,1.22.46,2.38a4.76,4.76,0,0,1,.09.87,2.17,2.17,0,0,1-.1.68C26.21,78.27,26.08,78.4,25.92,78.4Z" transform="translate(-5.49 -16.41)"/><path class="cls-1" d="M30.27,78.47a9.12,9.12,0,0,1-2.51-.31q-.9-.24-.9-.48c0-.09.15-.17.43-.26a16.9,16.9,0,0,1,2.09-.31l.77-.09a2.49,2.49,0,0,0-.43-.12c-1-.27-1.47-.66-1.47-1.18a1.16,1.16,0,0,1,.1-.42,2.14,2.14,0,0,1,1.11-.78,6.6,6.6,0,0,1,1.73-.41l.37,0a1.31,1.31,0,0,1,.85.23.46.46,0,0,1,.11.29.55.55,0,0,1-.11.29.55.55,0,0,1-.49.18,4.92,4.92,0,0,0-1,.19c-.47.12-.7.21-.7.25a7.07,7.07,0,0,0,1,.24,6.44,6.44,0,0,1,2.09.64.75.75,0,0,1,.4.65c0,.57-.55,1-1.66,1.23A8.37,8.37,0,0,1,30.27,78.47Z" transform="translate(-5.49 -16.41)"/><path class="cls-1" d="M37.83,78q-.3,0-.6,0a3.4,3.4,0,0,1-2.75-1.56,1.77,1.77,0,0,1-.22-.85,2.61,2.61,0,0,1,.83-1.74,4.36,4.36,0,0,1,3-1.26,2.42,2.42,0,0,1,1.36.36A1.23,1.23,0,0,1,40,74a2.05,2.05,0,0,1-1,1.48,3.88,3.88,0,0,1-2.12.72c-.15,0-.23,0-.23,0s.14.08.42.12a4.88,4.88,0,0,0,.93.09c.42,0,1,0,1.76-.11s1.39-.17,1.92-.28a2.64,2.64,0,0,1,.63-.1c.15,0,.23,0,.23.12a.47.47,0,0,1-.13.24,4.39,4.39,0,0,1-2.17,1.28A7.69,7.69,0,0,1,37.83,78Zm-1.51-3a6.11,6.11,0,0,0,.79-.15,3.14,3.14,0,0,0,1.29-.6.26.26,0,0,0,.11-.17c0-.08-.11-.13-.35-.13a2.81,2.81,0,0,0-1.17.3,4.9,4.9,0,0,0-.62.35c-.19.14-.29.25-.29.33s.05.07.17.07Z" transform="translate(-5.49 -16.41)"/><path class="cls-1" d="M136,285.05a5.07,5.07,0,0,1-.66,0,2.53,2.53,0,0,1-1.92-1.26,1.92,1.92,0,0,1-.2-.84,2.39,2.39,0,0,1,.43-1.29.58.58,0,0,0,.12-.25,1.13,1.13,0,0,1,.48-.5,5.26,5.26,0,0,1,.94-.54,3.44,3.44,0,0,1,1.21-.35,6.32,6.32,0,0,1,1.13.13,4.75,4.75,0,0,1,1.05.31,1.92,1.92,0,0,1,1.22,1.64c0,.09,0,.36-.11.79s-.52.94-1.34,1.51A4,4,0,0,1,136,285.05Zm-.13-1.61a4.63,4.63,0,0,0,.84-.09,2.29,2.29,0,0,0,1.44-.79.72.72,0,0,0,.13-.37c0-.2-.14-.39-.42-.55a3,3,0,0,0-1.29-.35,1.55,1.55,0,0,0-1.12.43,1.69,1.69,0,0,0-.64,1.06.52.52,0,0,0,.12.33A1.12,1.12,0,0,0,135.91,283.44Z" transform="translate(-5.49 -16.41)"/><path class="cls-1" d="M142.05,285.18a1.39,1.39,0,0,1-.4-.06c-.86-.41-1.29-1.41-1.29-3a13.43,13.43,0,0,1,.17-2,.25.25,0,0,0,0-.08.08.08,0,0,0,0-.07l-.16,0c-.5-.11-.75-.3-.75-.56v-.22c0-.15.26-.27.77-.37a1.29,1.29,0,0,0,.29-.05.19.19,0,0,0,.09-.13c0-.07,0-.19.07-.35a11.13,11.13,0,0,1,.48-2c.12-.29.3-.44.52-.44a.42.42,0,0,1,.37.19,1.26,1.26,0,0,1,.08.53c0,.32-.07.95-.19,1.9v.09a.19.19,0,0,0,0,.07s.16.06.43.08c1,.11,1.54.34,1.54.69s-.51.56-1.52.65a1.62,1.62,0,0,0-.49.05c-.07,0-.11.13-.13.28s0,.31,0,.56v.47c0,1.45.14,2.17.4,2.17a1.66,1.66,0,0,0,.57-.16,3.91,3.91,0,0,0,.71-.35,1.51,1.51,0,0,1,.46-.26s.07,0,.07.15a.66.66,0,0,1,0,.13,2.42,2.42,0,0,1-.91,1.58A1.88,1.88,0,0,1,142.05,285.18Z" transform="translate(-5.49 -16.41)"/><path class="cls-1" d="M145.38,285.39a.79.79,0,0,1-.29-.06.94.94,0,0,1-.43-.41,8.6,8.6,0,0,1-.07-1.61c0-.59,0-1.3,0-2.13s0-1.64.07-2.43.07-1.33.11-1.62a.73.73,0,0,1,.24-.49.32.32,0,0,1,.18-.06.37.37,0,0,1,.21.08.39.39,0,0,1,.16.21,2.23,2.23,0,0,1,.1.53c0,.42.09,1.52.15,3.31,0,1,0,1.56.06,1.58a6,6,0,0,0,.5-.47,3.35,3.35,0,0,1,2.2-1,5,5,0,0,1,1.22.27c.58.19,1.07.95,1.47,2.29a3.87,3.87,0,0,1,.11.8c0,.47-.16.7-.48.7s-.7-.39-1.07-1.18-.87-1.39-1.38-1.39-1.35.72-2.14,2.17a2.57,2.57,0,0,1-.61.84A.56.56,0,0,1,145.38,285.39Z" transform="translate(-5.49 -16.41)"/><path class="cls-1" d="M155.43,284.78l-.6,0a3.42,3.42,0,0,1-2.76-1.56,1.91,1.91,0,0,1-.21-.86,2.6,2.6,0,0,1,.83-1.74,4.4,4.4,0,0,1,3-1.25,2.44,2.44,0,0,1,1.36.36,1.22,1.22,0,0,1,.56,1.09,2.07,2.07,0,0,1-1,1.48,4,4,0,0,1-2.13.71c-.14,0-.22,0-.22,0s.14.07.42.12a4.87,4.87,0,0,0,.93.08,24,24,0,0,0,3.67-.38,2.78,2.78,0,0,1,.64-.1c.15,0,.22,0,.22.11a.44.44,0,0,1-.12.24,4.32,4.32,0,0,1-2.17,1.29A8,8,0,0,1,155.43,284.78Zm-1.52-3a4.65,4.65,0,0,0,.8-.14,3.51,3.51,0,0,0,1.29-.6.3.3,0,0,0,.11-.18c0-.08-.12-.12-.35-.12a2.81,2.81,0,0,0-1.17.3,3.91,3.91,0,0,0-.62.35c-.2.14-.3.25-.3.32s.06.07.18.07Z" transform="translate(-5.49 -16.41)"/><path class="cls-1" d="M161.46,285.43a.75.75,0,0,1-.39-.11q-.48-.29-.48-1.86a13.71,13.71,0,0,1,.23-2.28c.13-.6.33-.9.59-.9l.24,0q.22,0,.33,1c0,.26,0,.39.1.39s.2-.13.44-.37a3,3,0,0,1,2-1,2.07,2.07,0,0,1,1.37.57,1.25,1.25,0,0,1,.4.64q0,.18-.3.18l-.24,0a2.93,2.93,0,0,0-.58-.06c-1.2,0-2.14.91-2.8,2.74C162.11,285.1,161.81,285.43,161.46,285.43Z" transform="translate(-5.49 -16.41)"/><path class="cls-1" d="M268.38,213.28c-.26,0-.48-.18-.68-.56a3.82,3.82,0,0,1-.37-1.42c0-.26,0-.39-.07-.39s-.09.07-.19.21a5.2,5.2,0,0,1-2,1.72,3.49,3.49,0,0,1-1.57.42,2.72,2.72,0,0,1-.58-.06,1.43,1.43,0,0,1-1.17-1.44,2.19,2.19,0,0,1,.7-1.49,3.7,3.7,0,0,1,2.6-1.08,4.51,4.51,0,0,1,1.32.2h0l.06,0a2.33,2.33,0,0,0,.2-.34,6.6,6.6,0,0,0,.79-2.51,5.78,5.78,0,0,1,.32-1.57.58.58,0,0,1,.54-.39h.05c.43,0,.64.33.64,1a4.91,4.91,0,0,1-.1.92,15.39,15.39,0,0,0-.15,2.46c0,.39,0,.78,0,1.18,0,.68.05,1.24.05,1.68,0,.11,0,.31,0,.59a1.58,1.58,0,0,1-.12.67A.38.38,0,0,1,268.38,213.28Zm-4.85-1.45a2.15,2.15,0,0,0,.8-.22,4.29,4.29,0,0,0,1.24-.93.35.35,0,0,0,.13-.22.12.12,0,0,0,0-.08s-.11-.06-.26-.06a2.85,2.85,0,0,0-.88.18,2.6,2.6,0,0,0-.9.49c-.28.26-.42.47-.42.62a.21.21,0,0,0,.07.15A.4.4,0,0,0,263.53,211.83Z" transform="translate(-5.49 -16.41)"/><path class="cls-1" d="M270.38,214.16a.85.85,0,0,1-.38-.11q-.48-.28-.48-1.86a13.71,13.71,0,0,1,.23-2.28c.13-.6.33-.9.59-.9l.24,0q.23,0,.33,1c0,.26,0,.39.1.39s.2-.13.44-.37a3,3,0,0,1,2-1,2.07,2.07,0,0,1,1.37.57c.27.29.4.5.4.64s-.1.18-.3.18l-.24,0a3,3,0,0,0-.58-.07c-1.2,0-2.14.92-2.8,2.75C271,213.82,270.74,214.16,270.38,214.16Z" transform="translate(-5.49 -16.41)"/><path class="cls-1" d="M279.84,214c-.22,0-.44-.18-.65-.53a3.64,3.64,0,0,1-.36-.74q0-.18-.09-.18s-.08.08-.18.22a1.89,1.89,0,0,1-1.47,1l-.52,0c-.3,0-.57-.47-.8-1.31a5.26,5.26,0,0,1-.1-1.13c0-.16,0-.46,0-.88a11.07,11.07,0,0,1,.2-1.51,2.37,2.37,0,0,1,.42-1.1.56.56,0,0,1,.32-.15c.2,0,.31.28.31.84v.31c0,.46,0,.89,0,1.27a6.91,6.91,0,0,0,.21,2.06.1.1,0,0,0,.09.06c.07,0,.17-.11.31-.33a6.08,6.08,0,0,0,.48-1,6.15,6.15,0,0,0,.35-1.28.9.9,0,0,1,.45-.73.63.63,0,0,1,.22,0c.36,0,.6.3.75.89.1.43.25,1.22.46,2.38a4.94,4.94,0,0,1,.09.87,2.29,2.29,0,0,1-.1.69C280.13,213.82,280,214,279.84,214Z" transform="translate(-5.49 -16.41)"/><path class="cls-1" d="M285,214.11a.64.64,0,0,1-.4-.16.86.86,0,0,1-.32-.46,7.91,7.91,0,0,1-.35-1.13l-.27-1a5.66,5.66,0,0,0-.49.93,3.93,3.93,0,0,1-.86,1.32.66.66,0,0,1-.43.16.9.9,0,0,1-.43-.12.8.8,0,0,1-.39-.36,2,2,0,0,1-.19-.79c0-.37,0-.89,0-1.58,0-.15,0-.32,0-.51V210a8.58,8.58,0,0,1,.05-1,.87.87,0,0,1,.31-.69.43.43,0,0,1,.25-.08c.14,0,.26.12.37.37a6.47,6.47,0,0,1,.31,1.74,2.81,2.81,0,0,0,.07.57,3.15,3.15,0,0,0,.24-.39c.48-.8.93-1.2,1.33-1.2s.91.6,1.26,1.82a5.69,5.69,0,0,0,.16.56s.17-.17.4-.51q1.17-1.62,1.92-1.62c.61,0,1,.8,1.21,2.38v.42q0,1.47-.48,1.47l-.33,0c-.21,0-.41-.7-.6-2,0-.16,0-.29-.06-.4s0-.18,0-.18-.11.08-.22.25-.26.39-.43.67-.32.57-.47.87C285.68,213.74,285.33,214.11,285,214.11Z" transform="translate(-5.49 -16.41)"/><path class="cls-1" d="M292.56,214a9.23,9.23,0,0,1-2.52-.32c-.59-.16-.89-.32-.89-.48s.14-.17.43-.25a15.06,15.06,0,0,1,2.09-.31l.76-.1-.42-.12q-1.47-.39-1.47-1.17a1,1,0,0,1,.1-.43,2.13,2.13,0,0,1,1.11-.77,6.15,6.15,0,0,1,1.73-.41,2.36,2.36,0,0,1,.37,0,1.25,1.25,0,0,1,.85.23.47.47,0,0,1,.11.28.65.65,0,0,1-.11.3.55.55,0,0,1-.49.18,4.56,4.56,0,0,0-1,.18c-.47.13-.71.21-.71.25a7.51,7.51,0,0,0,1,.24,6.47,6.47,0,0,1,2.09.65.74.74,0,0,1,.4.64c0,.57-.56,1-1.67,1.23A8.2,8.2,0,0,1,292.56,214Z" transform="translate(-5.49 -16.41)"/><path class="cls-1" d="M8,214a2.12,2.12,0,0,1-.57-.08.75.75,0,0,1-.6-.71.49.49,0,0,1,.07-.25.23.23,0,0,1,.2-.11l.13,0,.16,0a3.35,3.35,0,0,0,1.14-.34,7.14,7.14,0,0,0,1.46-.89c.39-.35.58-.59.58-.72s-.1-.16-.3-.16a3.67,3.67,0,0,0-1.15.32,7.83,7.83,0,0,0-1.77,1,2.12,2.12,0,0,1-1.14.53c-.36,0-.6-.24-.72-.74a2.62,2.62,0,0,1,0-.37c0-.71.07-2,.2-3.84a37.09,37.09,0,0,1,.42-4.29.42.42,0,0,1,.19-.24.34.34,0,0,1,.16,0l.13,0h0a.2.2,0,0,1,.12.08,1.56,1.56,0,0,1,.12.77c0,.5,0,1.41,0,2.75v.27c0,2.32,0,3.51,0,3.56a1.48,1.48,0,0,0,.25-.15,5.88,5.88,0,0,1,3.14-1.09l.83,0c.51,0,.83.41.95,1.21v0a2.41,2.41,0,0,1-.8,1.64,6.14,6.14,0,0,1-1.92,1.36A3.3,3.3,0,0,1,8,214Z" transform="translate(-5.49 -16.41)"/><path class="cls-1" d="M19.21,213.42a1.53,1.53,0,0,1-.5-.12,2.9,2.9,0,0,1-1.34-1.3l-.08-.12c-.07-.15-.14-.23-.19-.23a.65.65,0,0,0-.25.15l-.13.1a5.92,5.92,0,0,1-3,1.41,1.1,1.1,0,0,1-1.11-.83,3.57,3.57,0,0,1,0-.46,3,3,0,0,1,1-2.08A5.1,5.1,0,0,1,16,208.55a3.07,3.07,0,0,1,.77-.1,2.08,2.08,0,0,1,1.58.68.75.75,0,0,1,.16.45s0,.1,0,.21a.39.39,0,0,1-.2.28.2.2,0,0,1-.13,0,.38.38,0,0,1-.26-.13,1.37,1.37,0,0,0-1-.36,4,4,0,0,0-1.28.34,3.38,3.38,0,0,0-1.54,1.52.34.34,0,0,0,0,.15s0,.06.07.06A5.45,5.45,0,0,0,16,210.56a2.55,2.55,0,0,1,1.36-.71l.29,0c.17,0,.41.33.7.93q.3.57.42.75a3.85,3.85,0,0,1,.71,1.57C19.52,213.32,19.42,213.42,19.21,213.42Z" transform="translate(-5.49 -16.41)"/><path class="cls-1" d="M23.4,214a9.18,9.18,0,0,1-2.52-.32c-.59-.16-.89-.32-.89-.48s.14-.17.43-.25a14.79,14.79,0,0,1,2.09-.31l.76-.1-.42-.12q-1.47-.39-1.47-1.17a1,1,0,0,1,.1-.43,2.14,2.14,0,0,1,1.1-.77,6.3,6.3,0,0,1,1.74-.41,2.36,2.36,0,0,1,.37,0,1.21,1.21,0,0,1,.84.23.43.43,0,0,1,.12.28.65.65,0,0,1-.11.3.55.55,0,0,1-.49.18,4.73,4.73,0,0,0-1,.18c-.46.13-.7.21-.7.25a7.51,7.51,0,0,0,1.05.24,6.47,6.47,0,0,1,2.09.65.76.76,0,0,1,.4.64c0,.57-.56,1-1.67,1.23A8.2,8.2,0,0,1,23.4,214Z" transform="translate(-5.49 -16.41)"/><path class="cls-1" d="M30.79,214a9.1,9.1,0,0,1-2.51-.32c-.6-.16-.89-.32-.89-.48s.14-.17.42-.25a15.06,15.06,0,0,1,2.09-.31l.77-.1-.42-.12c-1-.26-1.48-.65-1.48-1.17a1.17,1.17,0,0,1,.1-.43,2.13,2.13,0,0,1,1.11-.77,6.23,6.23,0,0,1,1.73-.41,2.42,2.42,0,0,1,.37,0,1.25,1.25,0,0,1,.85.23.43.43,0,0,1,.12.28.58.58,0,0,1-.12.3c-.07.12-.24.18-.49.18a4.79,4.79,0,0,0-1,.18c-.47.13-.7.21-.7.25a7.55,7.55,0,0,0,1,.24,6.38,6.38,0,0,1,2.09.65.74.74,0,0,1,.4.64c0,.57-.55,1-1.66,1.23A8.35,8.35,0,0,1,30.79,214Z" transform="translate(-5.49 -16.41)"/><line class="cls-1" x1="144.51" y1="243.48" x2="144.51" y2="257.09"/><path class="cls-1" d="M150,259.9a42,42,0,0,1,.5,6.8,40,40,0,0,1-.5,6.81,40,40,0,0,1-.5-6.81A42,42,0,0,1,150,259.9Z" transform="translate(-5.49 -16.41)"/><line class="cls-1" x1="144.51" y1="11.84" x2="144.51" y2="25.45"/><path class="cls-1" d="M150,28.25a42.19,42.19,0,0,1,.5,6.81,40,40,0,0,1-.5,6.81,40,40,0,0,1-.5-6.81A42.19,42.19,0,0,1,150,28.25Z" transform="translate(-5.49 -16.41)"/><path class="cls-1" d="M34,150,23.93,160.38a14.52,14.52,0,0,0-2.3,2.69,9.32,9.32,0,0,0-1.2,3.25,20.86,20.86,0,0,0-.1,3.55l0,3.61c.06,4.81.17,9.62.1,14.43s-.16,9.62-.45,14.43a.05.05,0,1,1-.1,0c-.28-4.81-.36-9.62-.45-14.43s.05-9.62.1-14.43l0-3.61a22.74,22.74,0,0,1,.19-3.66,9.67,9.67,0,0,1,1.35-3.44A14.89,14.89,0,0,1,23.57,160L33.92,150a.06.06,0,0,1,.07,0A0,0,0,0,1,34,150Z" transform="translate(-5.49 -16.41)"/><path class="cls-1" d="M266.48,150,276.83,160l1.29,1.26a8.62,8.62,0,0,1,1.18,1.44,8.74,8.74,0,0,1,1.35,3.45,10.6,10.6,0,0,1,.13,1.85l0,1.81,0,3.61c.06,4.81.17,9.63.1,14.44s-.16,9.63-.45,14.44a0,0,0,0,1-.1,0c-.28-4.81-.36-9.63-.45-14.44s.05-9.63.1-14.44l0-3.61a30,30,0,0,0-.06-3.56,8.19,8.19,0,0,0-1.19-3.24,17.09,17.09,0,0,0-2.34-2.66L266.4,150a.08.08,0,0,1,0-.08A.09.09,0,0,1,266.48,150Z" transform="translate(-5.49 -16.41)"/><path class="cls-1" d="M133.22,134.56,93,94.85,83,84.93,73,75,70.5,72.42a14.79,14.79,0,0,0-2.62-2.19A14.47,14.47,0,0,0,61.45,68c-2.29-.14-4.69-.1-7-.17l-7.06-.18a0,0,0,0,1,0-.1c4.72-.1,9.39-.29,14.15-.24a14.72,14.72,0,0,1,6.83,2.22,15.09,15.09,0,0,1,2.82,2.27l2.52,2.47,10,10,9.92,10.06,39.71,40.2a.06.06,0,0,1,0,.07S133.24,134.58,133.22,134.56Z" transform="translate(-5.49 -16.41)"/><path class="cls-1" d="M212.75,29.09l-.65,0c-1.22-.13-1.83-.34-1.83-.64a.19.19,0,0,1,.07-.17.79.79,0,0,1,.29-.08,24.8,24.8,0,0,0,4.05-.79,3.77,3.77,0,0,0-.94-.47,9.68,9.68,0,0,1-2.59-1.48,1.22,1.22,0,0,1-.41-.87,1.28,1.28,0,0,1,.11-.49,2.93,2.93,0,0,1,1.43-1.26,6.64,6.64,0,0,1,2.15-.69l.36,0c.46,0,.69.16.69.49s-.12.31-.38.37a5.52,5.52,0,0,0-2.85,1.26.34.34,0,0,0-.14.24,1.28,1.28,0,0,0,0,.13,8.92,8.92,0,0,0,2.08,1.06,8.48,8.48,0,0,1,1.67.9,1.06,1.06,0,0,1,.47.83c0,.53-.42,1-1.27,1.3A6.2,6.2,0,0,1,212.75,29.09Z" transform="translate(-5.49 -16.41)"/><path class="cls-1" d="M218.06,29.34l-.22,0c-.71-.18-1.07-1-1.07-2.34,0-.34,0-.7.06-1.11a4.4,4.4,0,0,1,.18-1,.37.37,0,0,1,.36-.25.39.39,0,0,1,.28.09.87.87,0,0,1,.14.42c0,.22.06.54.08,1,.07,1.22.17,1.82.31,1.82s.21-.14.42-.43a8.88,8.88,0,0,0,.5-.75c.3-.53.59-.8.87-.8a1.39,1.39,0,0,1,.9.56,2.1,2.1,0,0,0,1.38.8c.62,0,1.09-.68,1.39-2,.23-1,.5-1.44.79-1.44s.39.33.5,1a5.21,5.21,0,0,1,0,.55,3.44,3.44,0,0,1-.69,2.11,2.67,2.67,0,0,1-1.84,1.09,1.84,1.84,0,0,1-.33,0,2.63,2.63,0,0,1-1.87-.89c-.06-.06-.09-.09-.12-.09s-.06,0-.1.08a1.82,1.82,0,0,0-.23.33C219.19,28.91,218.62,29.34,218.06,29.34Z" transform="translate(-5.49 -16.41)"/><path class="cls-1" d="M226.1,28.63a.59.59,0,0,1-.25-.05c-.24-.16-.39-.58-.46-1.28q0-.32,0-.63a5.56,5.56,0,0,1,.16-1.36c.08-.27.24-.4.45-.4a.48.48,0,0,1,.43.32,5.42,5.42,0,0,1,.13.77,16.17,16.17,0,0,1,.12,1.75c0,.11,0,.19,0,.25Q226.49,28.63,226.1,28.63Zm-.1-5.48a.51.51,0,0,1-.3-.1.46.46,0,0,1-.1-.72.47.47,0,0,1,.35-.18l.15,0c.09,0,.17.08.27.21a.54.54,0,0,1,.1.3.41.41,0,0,1-.32.44A.4.4,0,0,1,226,23.15Z" transform="translate(-5.49 -16.41)"/><path class="cls-1" d="M227.75,33.73a.44.44,0,0,1-.27-.14,2.25,2.25,0,0,1-.39-1.2c0-.32,0-1,0-2,0-.57,0-1.23,0-2a30.57,30.57,0,0,1,.12-3.33.55.55,0,0,1,.54-.46.59.59,0,0,1,.36.13.6.6,0,0,1,.2.43c0,.14,0,.21.07.21l.19,0,.37-.07a8.91,8.91,0,0,1,1.6-.16,3.77,3.77,0,0,1,1.49.25c.52.22.77.53.77.93a1.33,1.33,0,0,1-.13.55A3.43,3.43,0,0,1,231.1,28a7.24,7.24,0,0,1-2.37.69.41.41,0,0,0-.21,0c-.06,0-.1.1-.12.22a3.25,3.25,0,0,0,0,.55v1.09c0,.55,0,1,0,1.25s0,.49,0,.63a2.66,2.66,0,0,1-.05.35C228.15,33.43,228,33.73,227.75,33.73Zm.65-6.08.14,0,.34-.14.58-.21a6.22,6.22,0,0,0,1.86-.84h0q0-.08-.39-.12a8.77,8.77,0,0,0-1-.05c-.25,0-.5,0-.74,0-.4,0-.65,0-.74.06a.21.21,0,0,0-.17.12.84.84,0,0,0,0,.19c0,.41,0,.68,0,.81S228.34,27.65,228.4,27.65Z" transform="translate(-5.49 -16.41)"/><path class="cls-1" d="M236.21,28.84a4.35,4.35,0,0,1-.51,0,2.92,2.92,0,0,1-2.35-1.33,1.6,1.6,0,0,1-.18-.72,2.2,2.2,0,0,1,.71-1.48,3.67,3.67,0,0,1,2.54-1.07,2.11,2.11,0,0,1,1.16.3,1.07,1.07,0,0,1,.48.93,1.78,1.78,0,0,1-.87,1.26,3.32,3.32,0,0,1-1.8.61c-.13,0-.19,0-.19,0s.12.06.35.1a4.33,4.33,0,0,0,.8.07c.35,0,.85,0,1.49-.09a13.37,13.37,0,0,0,1.63-.24,3,3,0,0,1,.54-.08c.13,0,.19,0,.19.1a.31.31,0,0,1-.11.2,3.71,3.71,0,0,1-1.84,1.1A6.79,6.79,0,0,1,236.21,28.84Zm-1.29-2.53a5.9,5.9,0,0,0,.68-.13,2.61,2.61,0,0,0,1.09-.51c.07-.06.1-.11.1-.15s-.1-.1-.3-.1a2.41,2.41,0,0,0-1,.25,4,4,0,0,0-.52.3c-.17.12-.25.21-.25.28s.05.06.14.06Z" transform="translate(-5.49 -16.41)"/><path class="cls-1" d="M246.07,29.19a1.33,1.33,0,0,1-.34-.05c-.73-.35-1.1-1.2-1.1-2.54a10.53,10.53,0,0,1,.15-1.67s0-.05,0-.07a.11.11,0,0,0,0-.06l-.14,0c-.43-.1-.64-.26-.64-.49V24.1c0-.12.22-.23.66-.31a1.15,1.15,0,0,0,.25-.05s0,0,.07-.11a2,2,0,0,0,.06-.29,9.43,9.43,0,0,1,.41-1.68c.11-.25.25-.37.44-.37a.32.32,0,0,1,.31.16.94.94,0,0,1,.07.45,14.68,14.68,0,0,1-.16,1.62v.07a.13.13,0,0,0,0,.06s.13.05.37.07c.87.09,1.31.28,1.31.58s-.43.48-1.3.56a1.19,1.19,0,0,0-.41,0c-.06,0-.1.11-.11.24s0,.26,0,.47V26c0,1.23.12,1.84.34,1.84a1.53,1.53,0,0,0,.49-.13,4.2,4.2,0,0,0,.6-.3,1.13,1.13,0,0,1,.39-.22s.06,0,.06.12a.45.45,0,0,1,0,.11,2,2,0,0,1-.77,1.34A1.59,1.59,0,0,1,246.07,29.19Z" transform="translate(-5.49 -16.41)"/><path class="cls-1" d="M250.6,29.08a3.6,3.6,0,0,1-.56,0A2.11,2.11,0,0,1,248.41,28a1.54,1.54,0,0,1-.18-.72,2,2,0,0,1,.37-1.09.55.55,0,0,0,.1-.22,1,1,0,0,1,.41-.42,4.67,4.67,0,0,1,.8-.46,2.85,2.85,0,0,1,1-.29,5.22,5.22,0,0,1,1,.1,4.31,4.31,0,0,1,.89.27,1.63,1.63,0,0,1,1,1.4c0,.07,0,.3-.09.67s-.44.8-1.15,1.28A3.41,3.41,0,0,1,250.6,29.08Zm-.12-1.37a4.05,4.05,0,0,0,.72-.08,1.93,1.93,0,0,0,1.22-.67.53.53,0,0,0,.11-.31.55.55,0,0,0-.35-.47,2.5,2.5,0,0,0-1.1-.3,1.36,1.36,0,0,0-1,.36,1.47,1.47,0,0,0-.54.9.45.45,0,0,0,.1.29A1,1,0,0,0,250.48,27.71Z" transform="translate(-5.49 -16.41)"/><path class="cls-1" d="M263.86,28.77a1.18,1.18,0,0,1-.42-.1,2.5,2.5,0,0,1-1.15-1.1.54.54,0,0,0-.06-.11c-.07-.13-.12-.19-.16-.19s-.11,0-.22.13l-.11.08a5.06,5.06,0,0,1-2.55,1.2.93.93,0,0,1-.94-.7,2.8,2.8,0,0,1,0-.4,2.57,2.57,0,0,1,.84-1.77,4.37,4.37,0,0,1,2.11-1.18,2.54,2.54,0,0,1,.65-.09,1.73,1.73,0,0,1,1.34.59.63.63,0,0,1,.14.37s0,.09,0,.18a.32.32,0,0,1-.17.24.14.14,0,0,1-.1,0,.31.31,0,0,1-.23-.12,1.2,1.2,0,0,0-.81-.3,3.45,3.45,0,0,0-1.09.29,2.86,2.86,0,0,0-1.3,1.29.3.3,0,0,0,0,.13s0,.05.06.05a4.59,4.59,0,0,0,1.57-1,2.13,2.13,0,0,1,1.15-.6l.25,0c.15,0,.34.28.59.79.17.32.29.54.36.64a3.3,3.3,0,0,1,.61,1.34Q264.13,28.77,263.86,28.77Z" transform="translate(-5.49 -16.41)"/><path class="cls-1" d="M270.13,28.65c-.22,0-.41-.15-.58-.47a3.43,3.43,0,0,1-.32-1.21c0-.22,0-.33-.05-.33s-.08.06-.16.18a4.48,4.48,0,0,1-1.67,1.46,3,3,0,0,1-1.34.36,2,2,0,0,1-.49-.06,1.22,1.22,0,0,1-1-1.22,1.89,1.89,0,0,1,.6-1.27,3.16,3.16,0,0,1,2.22-.92,3.78,3.78,0,0,1,1.11.18h0l.05,0a1.48,1.48,0,0,0,.17-.28,5.72,5.72,0,0,0,.67-2.14,5.79,5.79,0,0,1,.27-1.34.5.5,0,0,1,.46-.32h.05c.36,0,.54.27.54.82a4.9,4.9,0,0,1-.08.78,12.44,12.44,0,0,0-.13,2.09c0,.33,0,.67,0,1,0,.58,0,1.05,0,1.42,0,.1,0,.27,0,.51a1.46,1.46,0,0,1-.1.57A.34.34,0,0,1,270.13,28.65ZM266,27.42a1.81,1.81,0,0,0,.68-.19,3.5,3.5,0,0,0,1.05-.79.33.33,0,0,0,.11-.18.2.2,0,0,0,0-.08s-.09-.05-.22-.05a2.47,2.47,0,0,0-.75.15,2.61,2.61,0,0,0-.77.43c-.24.22-.35.39-.35.52a.18.18,0,0,0,.06.13A.34.34,0,0,0,266,27.42Z" transform="translate(-5.49 -16.41)"/><path class="cls-1" d="M269.14,32.36a1.79,1.79,0,0,1-.51-.07,1.4,1.4,0,0,1-.8-.64,1,1,0,0,1-.13-.46.82.82,0,0,1,.11-.39c.05-.09.1-.14.15-.14s.09.05.16.15a.64.64,0,0,0,.57.26l.39,0a2,2,0,0,0,.85-.46A4.55,4.55,0,0,0,271.49,27a8.23,8.23,0,0,0-.08-1.09,2,2,0,0,1,0-.23c0-.33.12-.5.36-.5s.39.18.55.55a5,5,0,0,1,.26,1.58,7.65,7.65,0,0,1-.35,2,5.37,5.37,0,0,1-1.39,2.27A2.35,2.35,0,0,1,269.14,32.36ZM271.73,23h-.12a.43.43,0,0,1-.23-.07.57.57,0,0,1-.28-.47,1,1,0,0,1,0-.19c0-.11.1-.21.26-.32a.46.46,0,0,1,.25-.08.65.65,0,0,1,.33.1.58.58,0,0,1,.26.51A.57.57,0,0,1,272,23,.55.55,0,0,1,271.73,23Z" transform="translate(-5.49 -16.41)"/><path class="cls-1" d="M276.5,29.22c-.18,0-.37-.15-.55-.45a2.63,2.63,0,0,1-.3-.63c0-.1-.06-.15-.08-.15s-.07.07-.15.19a1.65,1.65,0,0,1-1.26.86l-.44-.05c-.26,0-.48-.4-.68-1.11a5.14,5.14,0,0,1-.08-1c0-.14,0-.39,0-.75a9.06,9.06,0,0,1,.18-1.28,2,2,0,0,1,.35-.94.51.51,0,0,1,.27-.12c.18,0,.26.23.26.71v.26q0,.6,0,1.08a5.83,5.83,0,0,0,.18,1.75s0,.06.07.06.15-.1.27-.29a4.67,4.67,0,0,0,.41-.86,5.45,5.45,0,0,0,.29-1.08.8.8,0,0,1,.39-.63.58.58,0,0,1,.18,0c.31,0,.52.25.64.76s.22,1,.4,2a4.27,4.27,0,0,1,.07.75,1.68,1.68,0,0,1-.09.58C276.75,29.11,276.64,29.22,276.5,29.22Z" transform="translate(-5.49 -16.41)"/><path class="cls-1" d="M280.2,29.29a7.65,7.65,0,0,1-2.13-.27c-.51-.14-.76-.27-.76-.41s.12-.14.36-.21a11.64,11.64,0,0,1,1.78-.27l.65-.08a2.2,2.2,0,0,0-.36-.1c-.83-.23-1.25-.56-1.25-1a1,1,0,0,1,.08-.36,1.85,1.85,0,0,1,.94-.66,5.59,5.59,0,0,1,1.48-.35l.31,0a1.09,1.09,0,0,1,.72.2.36.36,0,0,1,.1.24.51.51,0,0,1-.09.25.46.46,0,0,1-.42.16,4.11,4.11,0,0,0-.82.15c-.4.11-.6.18-.6.22s.3.08.89.2a5.64,5.64,0,0,1,1.78.55.63.63,0,0,1,.34.55c0,.48-.47.83-1.42,1A7.09,7.09,0,0,1,280.2,29.29Z" transform="translate(-5.49 -16.41)"/><path class="cls-1" d="M285.08,29.19a1.33,1.33,0,0,1-.34-.05c-.73-.35-1.1-1.2-1.1-2.54a10.53,10.53,0,0,1,.15-1.67s0-.05,0-.07a.11.11,0,0,0,0-.06l-.14,0c-.43-.1-.64-.26-.64-.49V24.1c0-.12.22-.23.66-.31a.9.9,0,0,0,.24-.05s.06,0,.08-.11a2,2,0,0,0,.06-.29,9.43,9.43,0,0,1,.41-1.68c.11-.25.25-.37.44-.37a.32.32,0,0,1,.31.16.94.94,0,0,1,.07.45,14.68,14.68,0,0,1-.16,1.62v.07a.13.13,0,0,0,0,.06s.13.05.37.07c.87.09,1.31.28,1.31.58s-.43.48-1.3.56a1.19,1.19,0,0,0-.41,0c-.06,0-.1.11-.11.24s0,.26,0,.47V26c0,1.23.12,1.84.34,1.84a1.53,1.53,0,0,0,.49-.13,4.2,4.2,0,0,0,.6-.3,1.13,1.13,0,0,1,.39-.22s.06,0,.06.12a.45.45,0,0,1,0,.11,2,2,0,0,1-.77,1.34A1.59,1.59,0,0,1,285.08,29.19Z" transform="translate(-5.49 -16.41)"/><path class="cls-1" d="M219.05,41.44a1.33,1.33,0,0,1-.34,0c-.73-.36-1.09-1.2-1.09-2.55a10.4,10.4,0,0,1,.14-1.66.2.2,0,0,0,0-.07.08.08,0,0,0,0-.06l-.13,0c-.43-.1-.65-.26-.65-.49,0,0,0-.06,0-.18s.22-.23.66-.32a.69.69,0,0,0,.24,0s.05-.05.07-.11a2,2,0,0,0,.06-.29,10.16,10.16,0,0,1,.41-1.68c.11-.25.26-.37.45-.37a.33.33,0,0,1,.31.16,1.09,1.09,0,0,1,.07.45c0,.27-.06.81-.16,1.61v.08a.07.07,0,0,0,0,0s.14.06.37.07c.87.1,1.31.29,1.31.59s-.43.48-1.29.56a1.23,1.23,0,0,0-.42,0c-.06,0-.1.11-.11.24s0,.26,0,.47v.41c0,1.23.12,1.84.34,1.84a1.47,1.47,0,0,0,.49-.13,3.35,3.35,0,0,0,.6-.3,1.14,1.14,0,0,1,.4-.22s.05,0,.05.12v.11A2,2,0,0,1,220,41,1.57,1.57,0,0,1,219.05,41.44Z" transform="translate(-5.49 -16.41)"/><path class="cls-1" d="M222,41.65a.71.71,0,0,1-.33-.09c-.27-.16-.41-.69-.41-1.59A12.27,12.27,0,0,1,221.4,38c.12-.51.28-.77.51-.77l.21,0c.12,0,.22.31.28.87,0,.22,0,.33.08.33s.17-.1.37-.31a2.56,2.56,0,0,1,1.69-.84,1.78,1.78,0,0,1,1.16.49c.23.25.34.43.34.55s-.08.15-.26.15l-.2,0a2.09,2.09,0,0,0-.49,0c-1,0-1.82.78-2.39,2.33C222.51,41.37,222.25,41.65,222,41.65Z" transform="translate(-5.49 -16.41)"/><path class="cls-1" d="M232.09,41a1.14,1.14,0,0,1-.42-.1,2.5,2.5,0,0,1-1.15-1.1.52.52,0,0,0-.07-.11c-.06-.13-.11-.19-.16-.19a.53.53,0,0,0-.21.13l-.11.08a5.06,5.06,0,0,1-2.55,1.2.94.94,0,0,1-.94-.7,1.87,1.87,0,0,1,0-.4,2.58,2.58,0,0,1,.85-1.77,4.38,4.38,0,0,1,2.1-1.18,2.61,2.61,0,0,1,.66-.09,1.79,1.79,0,0,1,1.34.58.66.66,0,0,1,.14.38s0,.09,0,.18a.32.32,0,0,1-.17.24.17.17,0,0,1-.11,0,.35.35,0,0,1-.23-.12,1.16,1.16,0,0,0-.81-.3,3.4,3.4,0,0,0-1.08.29,2.87,2.87,0,0,0-1.31,1.29.58.58,0,0,0,0,.13s0,0,.07,0a4.59,4.59,0,0,0,1.56-1,2.16,2.16,0,0,1,1.15-.6l.25,0c.15,0,.35.28.6.79l.35.64a3.2,3.2,0,0,1,.61,1.33C232.35,40.94,232.27,41,232.09,41Z" transform="translate(-5.49 -16.41)"/><path class="cls-1" d="M235.56,40.89c-.23,0-.46,0-.68,0q-2.15-.31-2.37-1.35a1.49,1.49,0,0,1,0-.21c0-.6.58-1.11,1.74-1.54a5.82,5.82,0,0,1,1.58-.25q.21,0,.78.06c.37,0,.56.2.56.49a.33.33,0,0,1-.05.19.34.34,0,0,1-.21.09,4.8,4.8,0,0,1-.51,0,5.76,5.76,0,0,0-1.37.22,4.15,4.15,0,0,0-1,.4c-.13.08-.2.16-.2.22s0,.09.11.13a4.8,4.8,0,0,0,1.89.26q.74,0,1.86-.06l.77,0a1.75,1.75,0,0,1,.5,0,.11.11,0,0,1,.08.1c0,.07-.06.17-.2.3a3.31,3.31,0,0,1-1.61.74A7.4,7.4,0,0,1,235.56,40.89Z" transform="translate(-5.49 -16.41)"/><path class="cls-1" d="M240,41.29a.48.48,0,0,1-.49-.39,2.58,2.58,0,0,1-.07-.75c0-.32,0-.93.08-1.81s.11-1.84.15-2.68c0-.5.05-.88.07-1.13a1.42,1.42,0,0,1,.12-.5.25.25,0,0,1,.22-.12.29.29,0,0,1,.27.17,1.94,1.94,0,0,1,.14.71c0,.35.06.88.08,1.58a3.69,3.69,0,0,0,.07.91,2.91,2.91,0,0,0,.44-.22,3.48,3.48,0,0,1,1.23-.53.31.31,0,0,1,.25.11.26.26,0,0,1,.12.2q0,.28-.72.72l-.11.07c-.51.3-.76.52-.76.66a.48.48,0,0,0,0,.12,4.07,4.07,0,0,0,1.18.47l.15,0a4.39,4.39,0,0,1,1.85,1,.27.27,0,0,1,.07.17c0,.18-.28.28-.84.32h-.17a5.51,5.51,0,0,1-2.27-.64,1.81,1.81,0,0,0-.41-.17s-.06,0-.06.12v0C240.55,40.78,240.34,41.29,240,41.29Z" transform="translate(-5.49 -16.41)"/><path class="cls-1" d="M250.35,41.4a1.19,1.19,0,0,1-.32,0,1.53,1.53,0,0,1-.71-.78,5.6,5.6,0,0,1-.48-1.36,4,4,0,0,1-.11-.93,1.88,1.88,0,0,1,0-.34c0-.35.18-.52.41-.52a.48.48,0,0,1,.29.09.93.93,0,0,1,.22.33c.07.16.16.4.27.71a4.54,4.54,0,0,0,.49,1.22,4.42,4.42,0,0,0,.62-.71,9.5,9.5,0,0,1,1.66-1.69,1.19,1.19,0,0,1,.63-.31.21.21,0,0,1,.21.16v.05a2.62,2.62,0,0,1-.36,1,13.75,13.75,0,0,1-.92,1.48,8.24,8.24,0,0,1-1,1.27A1.35,1.35,0,0,1,250.35,41.4Z" transform="translate(-5.49 -16.41)"/><path class="cls-1" d="M255.75,41.33a3.6,3.6,0,0,1-.56,0,2.12,2.12,0,0,1-1.63-1.07,1.53,1.53,0,0,1-.17-.72,2,2,0,0,1,.36-1.09.49.49,0,0,0,.1-.22,1,1,0,0,1,.41-.42,4.67,4.67,0,0,1,.8-.46,2.9,2.9,0,0,1,1-.29,5.05,5.05,0,0,1,1,.1,4,4,0,0,1,.9.27,1.62,1.62,0,0,1,1,1.4c0,.07,0,.3-.09.67s-.44.8-1.14,1.28A3.44,3.44,0,0,1,255.75,41.33ZM255.64,40a4.26,4.26,0,0,0,.72-.08,1.92,1.92,0,0,0,1.22-.68.58.58,0,0,0,.11-.31c0-.17-.12-.33-.36-.46a2.47,2.47,0,0,0-1.1-.3,1.36,1.36,0,0,0-1,.36,1.47,1.47,0,0,0-.54.9.45.45,0,0,0,.1.29A1,1,0,0,0,255.64,40Z" transform="translate(-5.49 -16.41)"/><path class="cls-1" d="M260,41.47a.42.42,0,0,1-.23-.1c-.23-.17-.34-.75-.34-1.74v-.85c0-.54.13-2.15.38-4.82a1,1,0,0,1,.26-.69.3.3,0,0,1,.15-.05.4.4,0,0,1,.3.19,3.91,3.91,0,0,1,.13,1.1c0,.64,0,1.47,0,2.49a25.75,25.75,0,0,1-.15,3.57Q260.28,41.47,260,41.47Z" transform="translate(-5.49 -16.41)"/><path class="cls-1" d="M264.59,41.47c-.19,0-.37-.15-.56-.45a3.7,3.7,0,0,1-.3-.63c0-.1-.05-.15-.08-.15s-.07.06-.15.19a1.64,1.64,0,0,1-1.25.86l-.45,0c-.25,0-.48-.4-.67-1.11a4.48,4.48,0,0,1-.09-1q0-.21,0-.75a7.54,7.54,0,0,1,.17-1.28,2,2,0,0,1,.35-.94.54.54,0,0,1,.27-.13q.27,0,.27.72v.26c0,.39,0,.76,0,1.08a6.28,6.28,0,0,0,.17,1.75.09.09,0,0,0,.08.06c.06,0,.15-.1.27-.29a5.55,5.55,0,0,0,.4-.86,4.83,4.83,0,0,0,.3-1.09.78.78,0,0,1,.39-.62.39.39,0,0,1,.18,0c.3,0,.52.25.63.76s.22,1,.4,2a4.25,4.25,0,0,1,.07.74,1.72,1.72,0,0,1-.08.59C264.84,41.36,264.73,41.47,264.59,41.47Z" transform="translate(-5.49 -16.41)"/><path class="cls-1" d="M269,41.61a.58.58,0,0,1-.35-.14.78.78,0,0,1-.27-.39,6.24,6.24,0,0,1-.3-1c-.14-.53-.22-.8-.23-.83a5.06,5.06,0,0,0-.41.79,3.3,3.3,0,0,1-.74,1.12.56.56,0,0,1-.36.14.78.78,0,0,1-.37-.11.61.61,0,0,1-.33-.3,1.76,1.76,0,0,1-.16-.67c0-.32,0-.76-.05-1.35,0-.12,0-.27,0-.43v-.36c0-.27,0-.56,0-.85a.77.77,0,0,1,.27-.59.52.52,0,0,1,.21-.07c.12,0,.23.11.32.32a5.89,5.89,0,0,1,.26,1.48,3.86,3.86,0,0,0,.06.48,1.93,1.93,0,0,0,.2-.33c.42-.68.8-1,1.13-1s.78.52,1.08,1.55c.08.32.13.48.13.48s.15-.15.34-.44c.67-.91,1.21-1.37,1.64-1.37s.86.67,1,2v.36c0,.83-.14,1.25-.41,1.25l-.28,0c-.18,0-.35-.59-.52-1.72a2.48,2.48,0,0,0,0-.33c0-.11,0-.16-.05-.16s-.08.07-.18.21-.23.34-.37.58-.27.48-.4.73C269.56,41.3,269.26,41.61,269,41.61Z" transform="translate(-5.49 -16.41)"/><path class="cls-1" d="M275.54,41.09l-.5,0a2.92,2.92,0,0,1-2.35-1.33,1.61,1.61,0,0,1-.18-.73,2.24,2.24,0,0,1,.71-1.48,3.71,3.71,0,0,1,2.54-1.06,2.11,2.11,0,0,1,1.16.3,1,1,0,0,1,.47.93,1.73,1.73,0,0,1-.86,1.26,3.32,3.32,0,0,1-1.8.61c-.13,0-.19,0-.19,0s.12.06.35.1a4.29,4.29,0,0,0,.79.07q.54,0,1.5-.09a15.68,15.68,0,0,0,1.63-.24,2.8,2.8,0,0,1,.54-.08c.13,0,.19,0,.19.1a.31.31,0,0,1-.11.2,3.64,3.64,0,0,1-1.84,1.09A6.52,6.52,0,0,1,275.54,41.09Zm-1.28-2.53a5.9,5.9,0,0,0,.68-.13,2.61,2.61,0,0,0,1.09-.51c.07-.06.1-.11.1-.15s-.1-.1-.3-.1a2.41,2.41,0,0,0-1,.25,4,4,0,0,0-.52.3c-.17.12-.26.21-.26.28s.05.06.15.06Z" transform="translate(-5.49 -16.41)"/><path class="cls-1" d="M166.76,122.1l2.79-.14a3,3,0,0,0,2.31-1,2.91,2.91,0,0,0,.59-1.11,3.59,3.59,0,0,0,.07-1.28l-.11-2.79V48.83l.12-2.79a3.57,3.57,0,0,0-.08-1.28,2.77,2.77,0,0,0-.59-1.11,3,3,0,0,0-2.31-1l-2.79-.14,2.79-.14a3.4,3.4,0,0,1,3.51,2.24,4.34,4.34,0,0,1,.23,1.48l.12,2.79v66.91l-.11,2.79a4.34,4.34,0,0,1-.23,1.48,3.48,3.48,0,0,1-.82,1.27,3.38,3.38,0,0,1-2.7,1Z" transform="translate(-5.49 -16.41)"/><path class="cls-1" d="M246.16,46.28l-7.26,8.47c-2.43,2.81-5.12,5.37-7.74,8L215.4,78.52l-3.94,3.94a9.91,9.91,0,0,1-5,2.8,12.88,12.88,0,0,1-2.88.21h-8.35c-7.43,0-14.85,0-22.28,0V84.5c3.7.16,7.4.28,11.1.47-3.7.19-7.4.31-11.1.47V84.5c7.43-.06,14.85,0,22.28,0h8.35a11.68,11.68,0,0,0,2.67-.19,8.86,8.86,0,0,0,4.55-2.53l3.93-3.94,15.75-15.75,3.94-3.94c1.27-1.34,2.74-2.51,4-3.85Z" transform="translate(-5.49 -16.41)"/></g></svg>